<svg xmlns="http://www.w3.org/2000/svg" xmlns:xlink="http://www.w3.org/1999/xlink" width="50" height="50" viewBox="0 0 50 50">
  <defs>
    <clipPath id="clip-path">
      <rect id="Rectangle_14" data-name="Rectangle 14" width="38.156" height="18.632" fill="#060f3a"/>
    </clipPath>
  </defs>
  <g id="Group_1164" data-name="Group 1164" transform="translate(-175 -4408)">
    <g id="Group_1163" data-name="Group 1163" transform="translate(175 4408)">
      <circle id="Ellipse_8" data-name="Ellipse 8" cx="25" cy="25" r="25" fill="#f82ffd"/>
      <g id="Group_1162" data-name="Group 1162" transform="translate(6.098 15.86)">
        <g id="Group_6" data-name="Group 6" transform="translate(0 0)" clip-path="url(#clip-path)">
          <path id="Path_8" data-name="Path 8" d="M9.464,18.632A9.506,9.506,0,0,1,2.653,15.95,9.335,9.335,0,0,1,0,9.265C.007,3.822,4.885.081,9.436,0a9.357,9.357,0,0,1,5.393,1.515,1.622,1.622,0,1,1-1.785,2.709,6.144,6.144,0,0,0-3.551-.979C6.541,3.3,3.249,5.784,3.244,9.269a6.117,6.117,0,0,0,1.7,4.388,6.21,6.21,0,0,0,4.515,1.73c4.747,0,6.451-3.238,8.424-6.988C19.959,4.462,22.307,0,28.55,0h.142A9.508,9.508,0,0,1,35.5,2.681a9.338,9.338,0,0,1,2.653,6.686c-.007,5.443-4.885,9.184-9.436,9.263a9.581,9.581,0,0,1-5.074-1.314,1.622,1.622,0,1,1,1.668-2.783,6.241,6.241,0,0,0,3.349.853c2.952-.052,6.244-2.538,6.248-6.024a6.121,6.121,0,0,0-1.7-4.389,6.211,6.211,0,0,0-4.515-1.73H28.55c-4.077,0-5.617,2.533-7.791,6.666-2.045,3.886-4.59,8.722-11.3,8.722" transform="translate(0 0)" fill="#060f3a"/>
        </g>
      </g>
    </g>
  </g>
</svg>
