<svg xmlns="http://www.w3.org/2000/svg" xmlns:xlink="http://www.w3.org/1999/xlink" width="266.335" height="50.31" viewBox="0 0 266.335 50.31">
  <defs>
    <clipPath id="clip-path">
      <rect id="Rectangle_8" data-name="Rectangle 8" width="266.335" height="50.31" transform="translate(0 0)" fill="none"/>
    </clipPath>
  </defs>
  <g id="Group_2" data-name="Group 2" transform="translate(0 0)">
    <g id="Group_1" data-name="Group 1" clip-path="url(#clip-path)">
      <path id="Path_1" data-name="Path 1" d="M22.42,16.416a21.567,21.567,0,0,0-4.567-1.463c-1.526-.305-2.845-.537-3.929-.694a19.249,19.249,0,0,1-5.966-1.378,2.42,2.42,0,0,1-1.312-2.293,3.841,3.841,0,0,1,2.01-3.559,11.162,11.162,0,0,1,5.669-1.255,14.68,14.68,0,0,1,3.832.442A17.191,17.191,0,0,1,21.8,7.787c.3.156.612.308.916.459A2.39,2.39,0,0,0,25.8,7.493a3.145,3.145,0,0,0,.787-1.947,2.6,2.6,0,0,0-1.065-2.172A11.546,11.546,0,0,0,20.866,1.15,25.349,25.349,0,0,0,14.1.274c-4.213,0-7.549.959-9.913,2.851a9.512,9.512,0,0,0-3.61,7.807,6.911,6.911,0,0,0,2.47,5.806,12.755,12.755,0,0,0,5.524,2.437c2.02.383,3.787.654,5.248.807a16.729,16.729,0,0,1,6.018,1.608,3.612,3.612,0,0,1,1.942,3.438,4.273,4.273,0,0,1-1.821,3.644c-1.249.928-3.182,1.4-5.744,1.4A14.654,14.654,0,0,1,9.265,29.3,11.929,11.929,0,0,1,5.45,27.083a4.35,4.35,0,0,0-2.585-1.252A3.137,3.137,0,0,0,1.1,26.61,2.621,2.621,0,0,0,0,28.81a2.987,2.987,0,0,0,.948,2.169c3.282,3.047,7.629,4.592,12.919,4.592,4.363,0,7.815-1,10.258-2.966a9.717,9.717,0,0,0,3.723-7.921,8.31,8.31,0,0,0-1.588-5.269,10.109,10.109,0,0,0-3.84-3" fill="#060f3a"/>
      <path id="Path_2" data-name="Path 2" d="M196.526.833A3.771,3.771,0,0,0,194.25.115a2.812,2.812,0,0,0-2.717,2.007l-9.622,24.056a.935.935,0,0,1-1.675.011L170.609,2.007A2.734,2.734,0,0,0,168.006,0a4.6,4.6,0,0,0-2.1.626,2.488,2.488,0,0,0-1.334,2.353,4.027,4.027,0,0,0,.265,1.208l11.7,28.091a5.316,5.316,0,0,0,1.94,2.255,4.712,4.712,0,0,0,2.6.879,4.873,4.873,0,0,0,2.718-.879,4.6,4.6,0,0,0,1.83-2.268l11.7-28.11a3.975,3.975,0,0,0,.253-1.176A2.521,2.521,0,0,0,196.526.833" fill="#060f3a"/>
      <path id="Path_3" data-name="Path 3" d="M205.481,19.711h22a3.246,3.246,0,0,0,2.842-1.461,6.039,6.039,0,0,0,.939-3.467,14.9,14.9,0,0,0-6.97-12.36,16.206,16.206,0,0,0-8.96-2.309,17.226,17.226,0,0,0-9,2.3,16.274,16.274,0,0,0-5.952,6.13,17.376,17.376,0,0,0-2.121,8.53c0,5.68,1.665,10.2,4.95,13.448s7.708,4.888,13.157,4.888a24.018,24.018,0,0,0,6.893-1.05,18.939,18.939,0,0,0,6.343-3.288l.039-.036a3.42,3.42,0,0,0,1.165-2.386,2.7,2.7,0,0,0-.893-2.057,2.729,2.729,0,0,0-1.857-.808,2.419,2.419,0,0,0-1.54.554,16.469,16.469,0,0,1-5.577,2.787,18.5,18.5,0,0,1-6.373.671,10.161,10.161,0,0,1-5.213-1.808,11.364,11.364,0,0,1-3.473-3.8,8.477,8.477,0,0,1-1.2-4.019,1.2,1.2,0,0,1,.046-.393,3.014,3.014,0,0,1,.757-.066m-.573-5.157a7.582,7.582,0,0,1,1.409-4.326,11.633,11.633,0,0,1,3.806-3.472,10.238,10.238,0,0,1,5.213-1.371,9.655,9.655,0,0,1,6.465,2.24,7.819,7.819,0,0,1,2.942,5.07,2.149,2.149,0,0,1-.169,1.562,1.062,1.062,0,0,1-.985.527l-18.108-.115c-.472,0-.576-.1-.573-.115" fill="#060f3a"/>
      <path id="Path_4" data-name="Path 4" d="M265.167.886h0a3.76,3.76,0,0,0-2.155-.772,2.819,2.819,0,0,0-2.719,2.126L250.7,26.835c-.419.788-.722.785-1.1.784-.734,0-1.311-.479-1.755-1.431L238.224,2.121a2.736,2.736,0,0,0-2.6-2.007,5.005,5.005,0,0,0-2.086.56,2.35,2.35,0,0,0-1.352,2.305,4.038,4.038,0,0,0,.266,1.21L245.56,35.255a3.213,3.213,0,0,1,.019,2.466L242.2,46.092a2.987,2.987,0,0,0-.279,1.353,2.485,2.485,0,0,0,1.168,2.093,3.739,3.739,0,0,0,2.155.772,2.812,2.812,0,0,0,2.715-2.116l18.12-43.925a4.209,4.209,0,0,0,.252-1.29A2.486,2.486,0,0,0,265.167.886" fill="#060f3a"/>
      <path id="Path_5" data-name="Path 5" d="M71.851.1a15.234,15.234,0,0,0-12.087,5.93A15.213,15.213,0,0,0,32.5,15.078V32.365a3.091,3.091,0,1,0,6.183,0V15.078a9,9,0,0,1,17.99,0V32.365a3.091,3.091,0,1,0,6.182,0V15.078a9,9,0,0,1,17.99,0V32.365a3.091,3.091,0,1,0,6.183,0V15.078A15.094,15.094,0,0,0,71.851.1" fill="#060f3a"/>
      <path id="Path_6" data-name="Path 6" d="M109.64,35.623a18.12,18.12,0,0,1-12.98-5.11A17.79,17.79,0,0,1,91.6,17.772C91.618,7.4,100.913.27,109.586.119a17.836,17.836,0,0,1,10.277,2.886,3.091,3.091,0,1,1-3.4,5.162A11.707,11.707,0,0,0,109.694,6.3c-5.625.1-11.9,4.837-11.907,11.479a11.662,11.662,0,0,0,3.248,8.364,11.835,11.835,0,0,0,8.6,3.3c9.046,0,12.293-6.172,16.054-13.318,3.947-7.5,8.421-16,20.319-16.006h.271a18.12,18.12,0,0,1,12.98,5.11,17.79,17.79,0,0,1,5.056,12.741c-.014,10.372-9.309,17.5-17.982,17.653a18.253,18.253,0,0,1-9.67-2.5,3.091,3.091,0,1,1,3.178-5.3,11.9,11.9,0,0,0,6.384,1.626c5.625-.1,11.9-4.837,11.907-11.479A11.662,11.662,0,0,0,154.889,9.6a11.835,11.835,0,0,0-8.605-3.3h-.271c-7.77,0-10.7,4.827-14.848,12.7-3.9,7.406-8.746,16.622-21.525,16.622" fill="#060f3a"/>
    </g>
  </g>
</svg>
