<svg xmlns="http://www.w3.org/2000/svg" width="60" height="60" viewBox="0 0 60 60">
  <g id="Group_1241" data-name="Group 1241" transform="translate(-408 -2280)">
    <g id="Ellipse_12" data-name="Ellipse 12" transform="translate(408 2280)" fill="#ec9bee" stroke="#060f3a" stroke-width="2">
      <circle cx="30" cy="30" r="30" stroke="none"/>
      <circle cx="30" cy="30" r="29" fill="none"/>
    </g>
    <path id="event_available_FILL0_wght400_GRAD0_opsz48" d="M18.52,30.08,13,24.6l1.68-1.68,3.84,3.76,7.36-7.36,1.68,1.72ZM8.4,36a2.3,2.3,0,0,1-1.68-.72A2.3,2.3,0,0,1,6,33.6V8.8a2.3,2.3,0,0,1,.72-1.68A2.3,2.3,0,0,1,8.4,6.4H11V4h2.6V6.4H27.2V4h2.6V6.4h2.6a2.3,2.3,0,0,1,1.68.72A2.3,2.3,0,0,1,34.8,8.8V33.6A2.461,2.461,0,0,1,32.4,36Zm0-2.4h24V16.4H8.4ZM8.4,14h24V8.8H8.4Zm0,0v0Z" transform="translate(418 2290)" fill="#060f3a"/>
  </g>
</svg>
