<svg xmlns="http://www.w3.org/2000/svg" width="40" height="40" viewBox="0 0 40 40">
  <path id="mood_FILL0_wght400_GRAD0_opsz48" d="M31.3,21.35a2.572,2.572,0,0,0,1.925-.8A2.7,2.7,0,0,0,29.4,16.725a2.713,2.713,0,0,0,1.9,4.625Zm-14.6,0a2.572,2.572,0,0,0,1.925-.8A2.7,2.7,0,0,0,14.8,16.725a2.713,2.713,0,0,0,1.9,4.625ZM24,34.95a11.052,11.052,0,0,0,6.075-1.775A10.179,10.179,0,0,0,34.1,28.35H13.9a10.52,10.52,0,0,0,4.05,4.825A10.93,10.93,0,0,0,24,34.95ZM24,44a19.475,19.475,0,0,1-7.8-1.575A19.969,19.969,0,0,1,5.575,31.8,19.475,19.475,0,0,1,4,24a19.475,19.475,0,0,1,1.575-7.8A19.969,19.969,0,0,1,16.2,5.575,19.475,19.475,0,0,1,24,4a19.475,19.475,0,0,1,7.8,1.575A19.969,19.969,0,0,1,42.425,16.2,19.475,19.475,0,0,1,44,24a19.475,19.475,0,0,1-1.575,7.8A19.969,19.969,0,0,1,31.8,42.425,19.475,19.475,0,0,1,24,44ZM24,24Zm0,17a16.4,16.4,0,0,0,12.05-4.95A16.4,16.4,0,0,0,41,24a16.4,16.4,0,0,0-4.95-12.05A16.4,16.4,0,0,0,24,7a16.4,16.4,0,0,0-12.05,4.95A16.4,16.4,0,0,0,7,24a16.4,16.4,0,0,0,4.95,12.05A16.4,16.4,0,0,0,24,41Z" transform="translate(-4 -4)"/>
</svg>
