<svg xmlns="http://www.w3.org/2000/svg" width="44" height="40" viewBox="0 0 44 40">
  <path id="cottage_FILL0_wght400_GRAD0_opsz48" d="M8,42V21.95l-4.2,3.2L2,22.75,8,18.2V12.5h3v3.4L24,6,46,22.8l-1.8,2.35L40,21.95V42Zm3-3H22.5V31h3v8H37V19.65L24,9.75l-13,9.9ZM8,10A5.266,5.266,0,0,1,9.625,6.1,5.331,5.331,0,0,1,13.5,4.5a2.374,2.374,0,0,0,1.775-.75A2.439,2.439,0,0,0,16,2h3a5.331,5.331,0,0,1-1.6,3.875A5.266,5.266,0,0,1,13.5,7.5a2.439,2.439,0,0,0-1.75.725A2.374,2.374,0,0,0,11,10Zm3,29h0Z" transform="translate(-2 -2)"/>
</svg>
