<svg xmlns="http://www.w3.org/2000/svg" width="60" height="60" viewBox="0 0 60 60">
  <g id="Group_1243" data-name="Group 1243" transform="translate(-630 -2280)">
    <g id="Ellipse_13" data-name="Ellipse 13" transform="translate(630 2280)" fill="#ec9bee" stroke="#060f3a" stroke-width="2">
      <circle cx="30" cy="30" r="30" stroke="none"/>
      <circle cx="30" cy="30" r="29" fill="none"/>
    </g>
    <path id="cottage_FILL0_wght400_GRAD0_opsz48" d="M6.8,34V17.96L3.44,20.52,2,18.6l4.8-3.64V10.4H9.2v2.72L19.6,5.2,37.2,18.64l-1.44,1.88L32.4,17.96V34Zm2.4-2.4h9.2V25.2h2.4v6.4H30V16.12L19.6,8.2,9.2,16.12ZM6.8,8.4A4.213,4.213,0,0,1,8.1,5.28,4.265,4.265,0,0,1,11.2,4a1.9,1.9,0,0,0,1.42-.6A1.951,1.951,0,0,0,13.2,2h2.4a4.265,4.265,0,0,1-1.28,3.1A4.213,4.213,0,0,1,11.2,6.4a1.951,1.951,0,0,0-1.4.58A1.9,1.9,0,0,0,9.2,8.4ZM9.2,31.6h0Z" transform="translate(641 2291)" fill="#060f3a"/>
  </g>
</svg>
