<svg xmlns="http://www.w3.org/2000/svg" width="40.017" height="40.017" viewBox="0 0 40.017 40.017">
  <path id="Icon_awesome-linkedin-in" data-name="Icon awesome-linkedin-in" d="M8.957,40.017H.661V13.3h8.3ZM4.8,9.656a4.828,4.828,0,1,1,4.8-4.85A4.845,4.845,0,0,1,4.8,9.656Zm35.2,30.361H31.73V27.012c0-3.1-.063-7.074-4.313-7.074-4.313,0-4.974,3.368-4.974,6.851V40.017H14.154V13.3h7.957v3.644h.116a8.718,8.718,0,0,1,7.85-4.314c8.4,0,9.94,5.529,9.94,12.711V40.017Z" transform="translate(0 0)" fill="#f82ffd"/>
</svg>
