<svg xmlns="http://www.w3.org/2000/svg" width="60" height="60" viewBox="0 0 60 60">
  <g id="Group_1240" data-name="Group 1240" transform="translate(-297 -2280)">
    <g id="Ellipse_10" data-name="Ellipse 10" transform="translate(297 2280)" fill="#ec9bee" stroke="#060f3a" stroke-width="2">
      <circle cx="30" cy="30" r="30" stroke="none"/>
      <circle cx="30" cy="30" r="29" fill="none"/>
    </g>
    <path id="compass_calibration_FILL0_wght400_GRAD0_opsz48" d="M20.82,38a8.112,8.112,0,0,1-8.074-8.074,8.112,8.112,0,0,1,8.074-8.074,8.112,8.112,0,0,1,8.074,8.074A8.112,8.112,0,0,1,20.82,38Zm0-2.523a5.56,5.56,0,0,0,3.932-9.482,5.584,5.584,0,0,0-7.863,0,5.551,5.551,0,0,0,3.932,9.482ZM11.7,20.675,4,12.98a28.788,28.788,0,0,1,7.737-5.046,22.292,22.292,0,0,1,18.166,0A28.788,28.788,0,0,1,37.64,12.98l-7.7,7.7a15.388,15.388,0,0,0-4.184-2.733,12.6,12.6,0,0,0-9.882,0A15.388,15.388,0,0,0,11.7,20.675Zm.126-3.448a20.057,20.057,0,0,1,4.373-2.081,14.657,14.657,0,0,1,4.625-.736,16.344,16.344,0,0,1,4.668.673,14.528,14.528,0,0,1,4.331,2.145L33.9,13.148a22.883,22.883,0,0,0-6.16-3.385,19.848,19.848,0,0,0-13.813,0,23.659,23.659,0,0,0-6.181,3.385ZM20.82,14.41ZM20.82,29.926Z" transform="translate(306 2288)" fill="#060f3a"/>
  </g>
</svg>
