<svg xmlns="http://www.w3.org/2000/svg" width="40" height="38.05" viewBox="0 0 40 38.05">
  <path id="compass_calibration_FILL0_wght400_GRAD0_opsz48" d="M24,44.05a9.646,9.646,0,0,1-9.6-9.6,9.646,9.646,0,0,1,9.6-9.6,9.646,9.646,0,0,1,9.6,9.6,9.646,9.646,0,0,1-9.6,9.6Zm0-3a6.573,6.573,0,0,0,6.6-6.6,6.573,6.573,0,0,0-6.6-6.6,6.573,6.573,0,0,0-6.6,6.6,6.573,6.573,0,0,0,6.6,6.6ZM13.15,23.45,4,14.3a34.231,34.231,0,0,1,9.2-6,26.507,26.507,0,0,1,21.6,0,34.231,34.231,0,0,1,9.2,6l-9.15,9.15a18.3,18.3,0,0,0-4.975-3.25,14.981,14.981,0,0,0-11.75,0,18.3,18.3,0,0,0-4.975,3.25Zm.15-4.1a23.849,23.849,0,0,1,5.2-2.475A17.428,17.428,0,0,1,24,16a19.434,19.434,0,0,1,5.55.8,17.275,17.275,0,0,1,5.15,2.55l4.85-4.85a27.209,27.209,0,0,0-7.325-4.025,23.6,23.6,0,0,0-16.425,0A28.132,28.132,0,0,0,8.45,14.5ZM24,16ZM24,34.45Z" transform="translate(-4 -6)"/>
</svg>
