<svg xmlns="http://www.w3.org/2000/svg" width="40" height="38" viewBox="0 0 40 38">
  <path id="savings_FILL0_wght400_GRAD0_opsz48" d="M32,22a1.964,1.964,0,1,0-1.425-.575A1.935,1.935,0,0,0,32,22ZM16,17H26V14H16ZM9,42Q7.3,36.3,5.65,30.625A41.429,41.429,0,0,1,4,19a10.614,10.614,0,0,1,3.2-7.8A10.614,10.614,0,0,1,15,8H25a10.164,10.164,0,0,1,3.525-2.95A9.771,9.771,0,0,1,33,4a2.988,2.988,0,0,1,3,3,2.466,2.466,0,0,1-.075.6,4.272,4.272,0,0,1-.175.55q-.2.55-.375,1.125A9.26,9.26,0,0,0,35.1,10.45L39.65,15H44V28.95L38.35,30.8,35,42H24V38H20v4Zm2.25-3H17V35H27v4h5.75L35.9,28.5,41,26.75V18H38.4L32,11.6a12.876,12.876,0,0,1,.325-2.425Q32.6,8,32.9,6.8a14.749,14.749,0,0,0-3.6,1.475A6.507,6.507,0,0,0,26.7,11H15a7.7,7.7,0,0,0-5.65,2.35A7.7,7.7,0,0,0,7,19,35.49,35.49,0,0,0,8.45,29.075Q9.9,34,11.25,39ZM24,22.9Z" transform="translate(-4 -4)"/>
</svg>
