<svg xmlns="http://www.w3.org/2000/svg" width="60" height="60" viewBox="0 0 60 60">
  <g id="Group_1244" data-name="Group 1244" transform="translate(-741 -2283)">
    <g id="Ellipse_13" data-name="Ellipse 13" transform="translate(741 2283)" fill="#ec9bee" stroke="#060f3a" stroke-width="2">
      <circle cx="30" cy="30" r="30" stroke="none"/>
      <circle cx="30" cy="30" r="29" fill="none"/>
    </g>
    <path id="handyman_FILL0_wght400_GRAD0_opsz48" d="M30.057,33.962a1.454,1.454,0,0,1-.419-.057.932.932,0,0,1-.381-.248l-8.571-8.571v-2.9l1.943-1.943h2.9L34.1,28.819a.931.931,0,0,1,.248.381,1.565,1.565,0,0,1,0,.838.931.931,0,0,1-.248.381l-3.238,3.238a.932.932,0,0,1-.381.248A1.454,1.454,0,0,1,30.057,33.962Zm0-2.7L31.7,29.619,24.076,22l-1.638,1.638ZM8.381,34a1.272,1.272,0,0,1-.438-.076,1.1,1.1,0,0,1-.4-.267l-3.2-3.2a1.1,1.1,0,0,1-.267-.4A1.272,1.272,0,0,1,4,29.619a1.119,1.119,0,0,1,.076-.419,1.161,1.161,0,0,1,.267-.381l8.571-8.571h3.238L17.6,18.8l-6.667-6.667H8.762L4,7.371,7.771,3.6l4.762,4.762v2.171L19.2,17.2l4.952-4.952L21.6,9.7l2.133-2.133h-4.3l-.686-.686L23.619,2l.686.686v4.3l2.133-2.133L32.876,11.3a4.236,4.236,0,0,1,.9,1.314A3.913,3.913,0,0,1,34.1,14.19a4.6,4.6,0,0,1-.229,1.429,4.061,4.061,0,0,1-.724,1.314L29.9,13.7l-2.133,2.133L25.79,13.848l-8.038,8.038v3.2L9.181,33.657a1.161,1.161,0,0,1-.381.267A1.118,1.118,0,0,1,8.381,34Zm0-2.743L16,23.638,14.362,22,6.743,29.619Z" transform="translate(752 2295)" fill="#060f3a"/>
  </g>
</svg>
