<svg xmlns="http://www.w3.org/2000/svg" width="38" height="40" viewBox="0 0 38 40">
  <path id="handyman_FILL0_wght400_GRAD0_opsz48" d="M36.571,41.952a1.817,1.817,0,0,1-.524-.071,1.164,1.164,0,0,1-.476-.31L24.857,30.857V27.238l2.429-2.429H30.9L41.619,35.524a1.164,1.164,0,0,1,.31.476,1.956,1.956,0,0,1,0,1.048,1.164,1.164,0,0,1-.31.476l-4.048,4.048a1.164,1.164,0,0,1-.476.31A1.817,1.817,0,0,1,36.571,41.952Zm0-3.381,2.048-2.048L29.1,27l-2.048,2.048ZM9.476,42a1.59,1.59,0,0,1-.548-.1,1.38,1.38,0,0,1-.5-.333l-4-4a1.38,1.38,0,0,1-.333-.5,1.59,1.59,0,0,1-.1-.548A1.4,1.4,0,0,1,4.1,36a1.451,1.451,0,0,1,.333-.476L15.143,24.81H19.19L21,23l-8.333-8.333H9.952L4,8.714,8.714,4l5.952,5.952v2.714L23,21l6.19-6.19L26,11.619l2.667-2.667H23.286L22.429,8.1l6.1-6.1.857.857V8.238l2.667-2.667L40.1,13.619a5.3,5.3,0,0,1,1.119,1.643,4.892,4.892,0,0,1,.4,1.976,5.755,5.755,0,0,1-.286,1.786,5.076,5.076,0,0,1-.9,1.643l-4.048-4.048-2.667,2.667L31.238,16.81,21.19,26.857v4L10.476,41.571A1.451,1.451,0,0,1,10,41.9a1.4,1.4,0,0,1-.524.1Zm0-3.429L19,29.048,16.952,27,7.429,36.524Z" transform="translate(-4 -2)"/>
</svg>
