<svg xmlns="http://www.w3.org/2000/svg" width="379.671" height="459.426" viewBox="0 0 379.671 459.426">
  <g id="Group_1307" data-name="Group 1307" transform="translate(-1241.957 -7767.634)">
    <g id="Group_1305" data-name="Group 1305" transform="matrix(1, 0.017, -0.017, 1, 1078.785, 6111.616)">
      <path id="Path_29645" data-name="Path 29645" d="M267.788,312.15l-123.9-64.24a14.725,14.725,0,0,1-6.295-19.851L225.335,58.818a14.726,14.726,0,0,1,19.852-6.295l123.9,64.24a14.725,14.725,0,0,1,6.295,19.852l-87.746,169.24A14.725,14.725,0,0,1,267.788,312.15Z" transform="translate(196.974 1790.882)" fill="#fff" stroke="#060f3a" stroke-miterlimit="10" stroke-width="2"/>
      <line id="Line_74" data-name="Line 74" x2="62.23" y2="32.265" transform="translate(432.31 1937.87)" fill="none" stroke="#060f3a" stroke-linecap="round" stroke-miterlimit="10" stroke-width="2"/>
      <line id="Line_75" data-name="Line 75" x2="113.444" y2="58.817" transform="translate(396.739 1943.809)" fill="none" stroke="#060f3a" stroke-linecap="round" stroke-miterlimit="10" stroke-width="2"/>
      <line id="Line_76" data-name="Line 76" x2="113.444" y2="58.817" transform="translate(389.995 1956.818)" fill="none" stroke="#060f3a" stroke-linecap="round" stroke-miterlimit="10" stroke-width="2"/>
      <line id="Line_77" data-name="Line 77" x2="95.951" y2="49.748" transform="translate(383.25 1969.826)" fill="none" stroke="#060f3a" stroke-linecap="round" stroke-miterlimit="10" stroke-width="2"/>
      <line id="Line_78" data-name="Line 78" x2="113.444" y2="58.817" transform="translate(376.506 1982.835)" fill="none" stroke="#060f3a" stroke-linecap="round" stroke-miterlimit="10" stroke-width="2"/>
      <line id="Line_79" data-name="Line 79" x2="104.697" y2="54.283" transform="translate(369.762 1995.843)" fill="none" stroke="#060f3a" stroke-linecap="round" stroke-miterlimit="10" stroke-width="2"/>
      <line id="Line_80" data-name="Line 80" x2="78.458" y2="40.679" transform="translate(363.017 2008.852)" fill="none" stroke="#060f3a" stroke-linecap="round" stroke-miterlimit="10" stroke-width="2"/>
      <path id="Path_29646" data-name="Path 29646" d="M310.475,135.821a23.841,23.841,0,1,1-10.192-32.14,23.842,23.842,0,0,1,10.192,32.14" transform="translate(195.043 1790.135)" fill="#ec9bee"/>
      <path id="Path_29647" data-name="Path 29647" d="M310.475,135.821a23.841,23.841,0,1,1-10.192-32.14A23.842,23.842,0,0,1,310.475,135.821Z" transform="translate(195.043 1790.135)" fill="none" stroke="#060f3a" stroke-miterlimit="10" stroke-width="2"/>
      <path id="Path_29648" data-name="Path 29648" d="M290.9,122.087l-11.47-5.947,2.958-5.7,11.469,5.947,2.408,4.866Z" transform="translate(194.835 1789.994)" fill="#fff"/>
      <path id="Path_29649" data-name="Path 29649" d="M290.9,122.087l-11.47-5.947,2.958-5.7,11.469,5.947,2.408,4.866Z" transform="translate(194.835 1789.994)" fill="none" stroke="#060f3a" stroke-miterlimit="10" stroke-width="2"/>
      <path id="Path_29650" data-name="Path 29650" d="M292.758,130.4l-16.327-8.465,2.957-5.7,16.327,8.466,2.408,4.866Z" transform="translate(194.88 1789.908)" fill="#fff"/>
      <path id="Path_29651" data-name="Path 29651" d="M292.758,130.4l-16.327-8.465,2.957-5.7,16.327,8.466,2.408,4.866Z" transform="translate(194.88 1789.908)" fill="none" stroke="#060f3a" stroke-miterlimit="10" stroke-width="2"/>
      <path id="Path_29652" data-name="Path 29652" d="M294.613,138.705l-21.184-10.984,2.957-5.7L297.57,133l2.408,4.866Z" transform="translate(194.925 1789.821)" fill="#fff"/>
      <path id="Path_29653" data-name="Path 29653" d="M294.613,138.705l-21.184-10.984,2.957-5.7L297.57,133l2.408,4.866Z" transform="translate(194.925 1789.821)" fill="none" stroke="#060f3a" stroke-miterlimit="10" stroke-width="2"/>
    </g>
    <g id="Group_1304" data-name="Group 1304" transform="translate(1102.014 5791.476)">
      <path id="Path_29654" data-name="Path 29654" d="M233.337,278.328,108.994,341.713a14.727,14.727,0,0,1-19.807-6.432L2.61,165.439a14.724,14.724,0,0,1,6.432-19.806L133.384,82.248a14.725,14.725,0,0,1,19.806,6.432l86.578,169.841a14.726,14.726,0,0,1-6.432,19.807" transform="translate(139.985 1975.798)" fill="#fff"/>
      <path id="Path_29655" data-name="Path 29655" d="M233.337,278.328,108.994,341.713a14.727,14.727,0,0,1-19.807-6.432L2.61,165.439a14.724,14.724,0,0,1,6.432-19.806L133.384,82.248a14.725,14.725,0,0,1,19.806,6.432l86.578,169.841A14.726,14.726,0,0,1,233.337,278.328Z" transform="translate(139.985 1975.798)" fill="none" stroke="#060f3a" stroke-miterlimit="10" stroke-width="2"/>
      <path id="Path_29656" data-name="Path 29656" d="M113.23,142.638a23.841,23.841,0,1,1-32.069-10.413,23.842,23.842,0,0,1,32.069,10.413" transform="translate(138.984 1975.068)" fill="#ec9bee"/>
      <path id="Path_29657" data-name="Path 29657" d="M113.23,142.638a23.841,23.841,0,1,1-32.069-10.413A23.842,23.842,0,0,1,113.23,142.638Z" transform="translate(138.984 1975.068)" fill="none" stroke="#060f3a" stroke-miterlimit="10" stroke-width="2"/>
      <path id="Path_29658" data-name="Path 29658" d="M85.144,139.264l1,20.534,7.825-3.989L96.505,169.4l2.03-21.608-8.3,4.233Z" transform="translate(138.73 1974.924)" fill="#fff"/>
      <path id="Path_29659" data-name="Path 29659" d="M85.144,139.264l1,20.534,7.825-3.989L96.505,169.4l2.03-21.608-8.3,4.233Z" transform="translate(138.73 1974.924)" fill="none" stroke="#060f3a" stroke-linecap="round" stroke-linejoin="round" stroke-width="2"/>
      <line id="Line_84" data-name="Line 84" y1="31.834" x2="62.451" transform="translate(220.118 2152.577)" fill="none" stroke="#060f3a" stroke-linecap="round" stroke-miterlimit="10" stroke-width="2"/>
      <line id="Line_85" data-name="Line 85" y1="58.034" x2="113.846" transform="translate(204.251 2158.761)" fill="none" stroke="#060f3a" stroke-linecap="round" stroke-miterlimit="10" stroke-width="2"/>
      <line id="Line_86" data-name="Line 86" y1="58.034" x2="113.846" transform="translate(210.905 2171.816)" fill="none" stroke="#060f3a" stroke-linecap="round" stroke-miterlimit="10" stroke-width="2"/>
      <line id="Line_87" data-name="Line 87" y1="49.085" x2="96.292" transform="translate(217.561 2193.819)" fill="none" stroke="#060f3a" stroke-linecap="round" stroke-miterlimit="10" stroke-width="2"/>
      <line id="Line_88" data-name="Line 88" y1="58.034" x2="113.846" transform="translate(224.215 2197.925)" fill="none" stroke="#060f3a" stroke-linecap="round" stroke-miterlimit="10" stroke-width="2"/>
      <line id="Line_89" data-name="Line 89" y1="53.56" x2="105.069" transform="translate(230.869 2215.454)" fill="none" stroke="#060f3a" stroke-linecap="round" stroke-miterlimit="10" stroke-width="2"/>
      <line id="Line_90" data-name="Line 90" y1="40.137" x2="78.737" transform="translate(237.524 2241.931)" fill="none" stroke="#060f3a" stroke-linecap="round" stroke-miterlimit="10" stroke-width="2"/>
    </g>
    <g id="Group_1306" data-name="Group 1306" transform="translate(1303.999 5992.014)">
      <line id="Line_81" data-name="Line 81" x1="10" y1="1.906" transform="translate(81.865 1799.374)" fill="none" stroke="#ec9bee" stroke-linecap="round" stroke-linejoin="round" stroke-width="2"/>
      <line id="Line_82" data-name="Line 82" x1="4.966" y1="8.601" transform="translate(100.659 1776.986)" fill="none" stroke="#ec9bee" stroke-linecap="round" stroke-linejoin="round" stroke-width="2"/>
      <line id="Line_83" data-name="Line 83" y1="5.529" x2="4.041" transform="translate(135.571 1783.12)" fill="none" stroke="#ec9bee" stroke-linecap="round" stroke-linejoin="round" stroke-width="2"/>
      <path id="Path_29660" data-name="Path 29660" d="M253.078,259.864,114.738,241.4a14.727,14.727,0,0,1-12.648-16.545L127.308,35.9a14.727,14.727,0,0,1,16.545-12.648l138.34,18.463a14.725,14.725,0,0,1,12.648,16.545l-25.219,188.96a14.725,14.725,0,0,1-16.544,12.648" transform="translate(-18.079 1775.655)" fill="#fff"/>
      <path id="Path_29661" data-name="Path 29661" d="M253.078,259.864,114.738,241.4a14.727,14.727,0,0,1-12.648-16.545L127.308,35.9a14.727,14.727,0,0,1,16.545-12.648l138.34,18.463a14.725,14.725,0,0,1,12.648,16.545l-25.219,188.96A14.725,14.725,0,0,1,253.078,259.864Z" transform="translate(-18.079 1775.655)" fill="none" stroke="#060f3a" stroke-miterlimit="10" stroke-width="2"/>
      <line id="Line_91" data-name="Line 91" x2="69.481" y2="9.273" transform="translate(148.509 1891.121)" fill="none" stroke="#060f3a" stroke-linecap="round" stroke-miterlimit="10" stroke-width="2"/>
      <line id="Line_92" data-name="Line 92" x2="126.662" y2="16.904" transform="translate(117.056 1908.76)" fill="none" stroke="#060f3a" stroke-linecap="round" stroke-miterlimit="10" stroke-width="2"/>
      <line id="Line_93" data-name="Line 93" x2="126.662" y2="16.904" transform="translate(115.117 1923.284)" fill="none" stroke="#060f3a" stroke-linecap="round" stroke-miterlimit="10" stroke-width="2"/>
      <line id="Line_94" data-name="Line 94" x2="107.131" y2="14.298" transform="translate(113.179 1937.808)" fill="none" stroke="#060f3a" stroke-linecap="round" stroke-miterlimit="10" stroke-width="2"/>
      <line id="Line_95" data-name="Line 95" x2="126.662" y2="16.904" transform="translate(111.24 1952.332)" fill="none" stroke="#060f3a" stroke-linecap="round" stroke-miterlimit="10" stroke-width="2"/>
      <line id="Line_96" data-name="Line 96" x2="116.896" y2="15.601" transform="translate(109.302 1966.856)" fill="none" stroke="#060f3a" stroke-linecap="round" stroke-miterlimit="10" stroke-width="2"/>
      <line id="Line_97" data-name="Line 97" x2="87.6" y2="11.691" transform="translate(107.363 1981.38)" fill="none" stroke="#060f3a" stroke-linecap="round" stroke-miterlimit="10" stroke-width="2"/>
      <path id="Path_29662" data-name="Path 29662" d="M232.154,79.03a23.841,23.841,0,1,1-20.478-26.786A23.841,23.841,0,0,1,232.154,79.03" transform="translate(-19.313 1775.224)" fill="#ec9bee"/>
      <path id="Path_29663" data-name="Path 29663" d="M232.154,79.03a23.841,23.841,0,1,1-20.478-26.786A23.841,23.841,0,0,1,232.154,79.03Z" transform="translate(-19.313 1775.224)" fill="none" stroke="#060f3a" stroke-miterlimit="10" stroke-width="2"/>
      <path id="Path_29664" data-name="Path 29664" d="M219.293,81.972c-.738,5.525-6.5,10.519-12.681,9.694a11.286,11.286,0,0,1-9.694-12.68c.568-4.259,3.885-9.66,6.226-11.739a.273.273,0,0,1,.448.163c1.316,8.03,9.409,3.339,7.777-6.345a.494.494,0,0,1,.738-.51c6.57,3.953,7.908,16.014,7.186,21.418" transform="translate(-19.493 1775.099)" fill="#fff"/>
      <path id="Path_29665" data-name="Path 29665" d="M219.293,81.972c-.738,5.525-6.5,10.519-12.681,9.694a11.286,11.286,0,0,1-9.694-12.68c.568-4.259,3.885-9.66,6.226-11.739a.273.273,0,0,1,.448.163c1.316,8.03,9.409,3.339,7.777-6.345a.494.494,0,0,1,.738-.51C218.676,64.507,220.015,76.568,219.293,81.972Z" transform="translate(-19.493 1775.099)" fill="none" stroke="#060f3a" stroke-miterlimit="10" stroke-width="2"/>
      <path id="Path_29666" data-name="Path 29666" d="M212.848,83.83c-.682,2.915-2.9,4.684-5.647,4.317a5.027,5.027,0,0,1-4.317-5.647,10.5,10.5,0,0,1,2.476-4.935.5.5,0,0,1,.76.025c1.109,1.378,3.132.762,3.866-1.618a.39.39,0,0,1,.615-.2c2.646,2.125,2.795,5.715,2.247,8.054" transform="translate(-19.583 1774.872)" fill="#ec9bee"/>
      <path id="Path_29667" data-name="Path 29667" d="M212.848,83.83c-.682,2.915-2.9,4.684-5.647,4.317a5.027,5.027,0,0,1-4.317-5.647,10.5,10.5,0,0,1,2.476-4.935.5.5,0,0,1,.76.025c1.109,1.378,3.132.762,3.866-1.618a.39.39,0,0,1,.615-.2C213.247,77.9,213.4,81.49,212.848,83.83Z" transform="translate(-19.583 1774.872)" fill="none" stroke="#060f3a" stroke-miterlimit="10" stroke-width="2"/>
    </g>
  </g>
</svg>
