<svg xmlns="http://www.w3.org/2000/svg" width="775.66" height="546.719" viewBox="0 0 775.66 546.719">
  <g id="Group_1339" data-name="Group 1339" transform="translate(-753.64 -127.857)">
    <path id="Path_29669" data-name="Path 29669" d="M550.62,642.567a35.564,35.564,0,0,1-37.608,35.37c-17.461-.9-32.012-15.222-33.355-32.683a35.782,35.782,0,0,1,6.716-23.729,43.441,43.441,0,0,0,8.059-28.654V591.3a20.613,20.613,0,0,1,21.49-20.595,20.9,20.9,0,0,1,19.924,19.923v2.239c-.672,10.3,1.791,20.6,7.835,28.878A34.713,34.713,0,0,1,550.62,642.567Z" transform="translate(892.613 -28.313)" fill="none" stroke="#ec9bee" stroke-linecap="round" stroke-linejoin="round" stroke-miterlimit="10" stroke-width="2"/>
    <line id="Line_98" data-name="Line 98" y2="74.993" transform="translate(1407.64 597.688)" fill="none" stroke="#ec9bee" stroke-linecap="round" stroke-linejoin="round" stroke-miterlimit="10" stroke-width="2"/>
    <line id="Line_100" data-name="Line 100" y2="126.48" transform="translate(1093.343 356.816)" fill="none" stroke="#b1b1b1" stroke-linecap="round" stroke-linejoin="round" stroke-miterlimit="10" stroke-width="2"/>
    <line id="Line_101" data-name="Line 101" y2="126.48" transform="translate(1093.343 527.396)" fill="none" stroke="#b1b1b1" stroke-linecap="round" stroke-linejoin="round" stroke-miterlimit="10" stroke-width="2"/>
    <path id="Path_29671" data-name="Path 29671" d="M625.942,562.7,525.206,462.189,424.693,562.7H217.4l65.367-137h485.1l65.367,137Z" transform="translate(567.913 -207.9)" fill="#ec9bee"/>
    <path id="Path_29681" data-name="Path 29681" d="M268.972,552.5V724.423H224.2" transform="translate(576.336 -50.847)" fill="none" stroke="#060f3a" stroke-linecap="round" stroke-linejoin="round" stroke-miterlimit="10" stroke-width="2"/>
    <line id="Line_102" data-name="Line 102" y2="98.05" transform="translate(845.308 383.903)" fill="none" stroke="#060f3a" stroke-linecap="round" stroke-linejoin="round" stroke-miterlimit="10" stroke-width="2"/>
    <path id="Path_29682" data-name="Path 29682" d="M465.7,552.5V724.423H652.846" transform="translate(875.454 -50.847)" fill="none" stroke="#060f3a" stroke-linecap="round" stroke-linejoin="round" stroke-miterlimit="10" stroke-width="2"/>
    <line id="Line_103" data-name="Line 103" y2="127.823" transform="translate(1341.154 354.801)" fill="none" stroke="#31199c" stroke-linecap="round" stroke-linejoin="round" stroke-miterlimit="10" stroke-width="2"/>
    <path id="Path_29683" data-name="Path 29683" d="M217.4,562.7l65.367-137h485.1l65.367,137H625.942L525.206,462.189" transform="translate(567.913 -207.9)" fill="none" stroke="#060f3a" stroke-linecap="round" stroke-linejoin="round" stroke-miterlimit="10" stroke-width="2"/>
    <rect id="Rectangle_108" data-name="Rectangle 108" width="96.483" height="126.48" rx="10" transform="translate(1045.213 527.396)" fill="none" stroke="#060f3a" stroke-linecap="round" stroke-linejoin="round" stroke-miterlimit="10" stroke-width="2"/>
    <path id="Rectangle_109" data-name="Rectangle 109" d="M10,0H86.483a10,10,0,0,1,10,10V126.48a0,0,0,0,1,0,0H0a0,0,0,0,1,0,0V10A10,10,0,0,1,10,0Z" transform="translate(1045.213 356.816)" fill="none" stroke="#060f3a" stroke-linecap="round" stroke-linejoin="round" stroke-miterlimit="10" stroke-width="2"/>
    <rect id="Rectangle_110" data-name="Rectangle 110" width="113.72" height="74.545" rx="10" transform="translate(1190.945 527.396)" fill="none" stroke="#b1b1b1" stroke-linecap="round" stroke-linejoin="round" stroke-miterlimit="10" stroke-width="2"/>
    <line id="Line_104" data-name="Line 104" y2="74.545" transform="translate(1229.001 527.396)" fill="none" stroke="#b1b1b1" stroke-linecap="round" stroke-linejoin="round" stroke-miterlimit="10" stroke-width="2"/>
    <line id="Line_105" data-name="Line 105" y2="74.545" transform="translate(1266.609 527.396)" fill="none" stroke="#b1b1b1" stroke-linecap="round" stroke-linejoin="round" stroke-miterlimit="10" stroke-width="2"/>
    <rect id="Rectangle_111" data-name="Rectangle 111" width="113.72" height="74.545" rx="10" transform="translate(881.796 527.396)" fill="none" stroke="#b1b1b1" stroke-linecap="round" stroke-linejoin="round" stroke-miterlimit="10" stroke-width="2"/>
    <line id="Line_106" data-name="Line 106" y2="74.545" transform="translate(919.852 527.396)" fill="none" stroke="#b1b1b1" stroke-linecap="round" stroke-linejoin="round" stroke-miterlimit="10" stroke-width="2"/>
    <line id="Line_107" data-name="Line 107" y2="74.545" transform="translate(957.46 527.396)" fill="none" stroke="#b1b1b1" stroke-linecap="round" stroke-linejoin="round" stroke-miterlimit="10" stroke-width="2"/>
    <circle id="Ellipse_15" data-name="Ellipse 15" cx="13.879" cy="13.879" r="13.879" transform="translate(1079.463 299.508)" fill="none" stroke="#b1b1b1" stroke-linecap="round" stroke-linejoin="round" stroke-miterlimit="10" stroke-width="2"/>
    <rect id="Rectangle_112" data-name="Rectangle 112" width="39.175" height="77.679" rx="10" transform="translate(877.319 381.217)" fill="none" stroke="#b1b1b1" stroke-linecap="round" stroke-linejoin="round" stroke-miterlimit="10" stroke-width="2"/>
    <rect id="Rectangle_113" data-name="Rectangle 113" width="39.175" height="77.679" rx="10" transform="translate(947.163 381.217)" fill="none" stroke="#b1b1b1" stroke-linecap="round" stroke-linejoin="round" stroke-miterlimit="10" stroke-width="2"/>
    <rect id="Rectangle_114" data-name="Rectangle 114" width="39.175" height="77.679" rx="10" transform="translate(1200.123 381.217)" fill="none" stroke="#b1b1b1" stroke-linecap="round" stroke-linejoin="round" stroke-miterlimit="10" stroke-width="2"/>
    <rect id="Rectangle_115" data-name="Rectangle 115" width="39.175" height="77.679" rx="10" transform="translate(1269.967 381.217)" fill="none" stroke="#b1b1b1" stroke-linecap="round" stroke-linejoin="round" stroke-miterlimit="10" stroke-width="2"/>
    <rect id="Rectangle_116" data-name="Rectangle 116" width="530.769" height="17.237" rx="8.619" transform="translate(827.846 483.744)" fill="none" stroke="#060f3a" stroke-linecap="round" stroke-linejoin="round" stroke-miterlimit="10" stroke-width="2"/>
    <g id="Group_1336" data-name="Group 1336" transform="matrix(0.643, 0.766, -0.766, 0.643, 2786.866, -1300.552)">
      <path id="Path_29654" data-name="Path 29654" d="M131.979,192.085l-70.1,35.733a8.3,8.3,0,0,1-11.166-3.626L1.907,128.445a8.3,8.3,0,0,1,3.626-11.166l70.1-35.733A8.3,8.3,0,0,1,86.8,85.172l48.808,95.748a8.3,8.3,0,0,1-3.626,11.166" transform="translate(139.985 1975.798)" fill="#fff"/>
      <path id="Path_29655" data-name="Path 29655" d="M131.979,192.085l-70.1,35.733a8.3,8.3,0,0,1-11.166-3.626L1.907,128.445a8.3,8.3,0,0,1,3.626-11.166l70.1-35.733A8.3,8.3,0,0,1,86.8,85.172l48.808,95.748A8.3,8.3,0,0,1,131.979,192.085Z" transform="translate(139.985 1975.798)" fill="none" stroke="#060f3a" stroke-miterlimit="10" stroke-width="2"/>
      <path id="Path_29656" data-name="Path 29656" d="M93.56,136.959a13.44,13.44,0,1,1-18.079-5.871,13.441,13.441,0,0,1,18.079,5.871" transform="translate(110.13 1954.018)" fill="#ec9bee"/>
      <path id="Path_29657" data-name="Path 29657" d="M93.56,136.959a13.44,13.44,0,1,1-18.079-5.871A13.441,13.441,0,0,1,93.56,136.959Z" transform="translate(110.13 1954.018)" fill="none" stroke="#060f3a" stroke-miterlimit="10" stroke-width="2"/>
      <path id="Path_29658" data-name="Path 29658" d="M85.144,139.264l.561,11.576,4.411-2.249,1.432,7.661,1.145-12.182-4.682,2.386Z" transform="translate(102.57 1949.73)" fill="#fff"/>
      <path id="Path_29659" data-name="Path 29659" d="M85.144,139.264l.561,11.576,4.411-2.249,1.432,7.661,1.145-12.182-4.682,2.386Z" transform="translate(102.57 1949.73)" fill="none"/>
      <line id="Line_84" data-name="Line 84" y1="17.947" x2="35.207" transform="translate(185.596 2110.635)" fill="none" stroke="#060f3a" stroke-linecap="round" stroke-miterlimit="10" stroke-width="2"/>
      <line id="Line_85" data-name="Line 85" y1="32.716" x2="64.181" transform="translate(176.651 2114.122)" fill="none" stroke="#060f3a" stroke-linecap="round" stroke-miterlimit="10" stroke-width="2"/>
      <line id="Line_86" data-name="Line 86" y1="32.716" x2="64.181" transform="translate(180.402 2121.481)" fill="none" stroke="#060f3a" stroke-linecap="round" stroke-miterlimit="10" stroke-width="2"/>
      <line id="Line_87" data-name="Line 87" y1="27.672" x2="54.284" transform="translate(184.154 2133.885)" fill="none" stroke="#060f3a" stroke-linecap="round" stroke-miterlimit="10" stroke-width="2"/>
      <line id="Line_88" data-name="Line 88" y1="32.716" x2="64.181" transform="translate(187.906 2136.2)" fill="none" stroke="#060f3a" stroke-linecap="round" stroke-miterlimit="10" stroke-width="2"/>
      <line id="Line_89" data-name="Line 89" y1="30.194" x2="59.233" transform="translate(191.657 2146.082)" fill="none" stroke="#060f3a" stroke-linecap="round" stroke-miterlimit="10" stroke-width="2"/>
      <line id="Line_90" data-name="Line 90" y1="22.627" x2="44.388" transform="translate(195.409 2161.009)" fill="none" stroke="#060f3a" stroke-linecap="round" stroke-miterlimit="10" stroke-width="2"/>
    </g>
    <g id="Group_1337" data-name="Group 1337" transform="translate(7 11)">
      <g id="Group_1333" data-name="Group 1333" transform="translate(452.813 245.079) rotate(-11)">
        <path id="Path_29739" data-name="Path 29739" d="M356.252,246.839c-29.271,2.407-50.078-9.239-50.078-9.239s-20.73,11.646-50.078,9.239c0,0-16.227,80.358,50.078,101.942C372.556,327.2,356.252,246.839,356.252,246.839Zm-22.9,31.833-23.292,23.292a12.512,12.512,0,0,1-17.7,0l-6.211-6.211a6.327,6.327,0,0,1,0-8.851,6.187,6.187,0,0,1,8.851,0l4.193,4.193a2.86,2.86,0,0,0,4.115,0l21.273-21.273a6.327,6.327,0,0,1,8.851,0,6.173,6.173,0,0,1,1.863,4.426A7.614,7.614,0,0,1,333.348,278.672Z" fill="none"/>
        <path id="Path_29740" data-name="Path 29740" d="M356.252,246.839c-29.271,2.407-50.078-9.239-50.078-9.239s-20.73,11.646-50.078,9.239c0,0-16.227,80.358,50.078,101.942C372.556,327.2,356.252,246.839,356.252,246.839Zm-22.9,31.833-23.292,23.292a12.512,12.512,0,0,1-17.7,0l-6.211-6.211a6.327,6.327,0,0,1,0-8.851,6.187,6.187,0,0,1,8.851,0l4.193,4.193a2.86,2.86,0,0,0,4.115,0l21.273-21.273a6.327,6.327,0,0,1,8.851,0,6.173,6.173,0,0,1,1.863,4.426A7.614,7.614,0,0,1,333.348,278.672Z" fill="#fff" stroke="#060f3a" stroke-linecap="round" stroke-linejoin="round" stroke-miterlimit="10" stroke-width="2"/>
      </g>
      <circle id="Ellipse_22" data-name="Ellipse 22" cx="33" cy="33" r="33" transform="translate(779 435)" fill="#fff"/>
      <path id="Path_29746" data-name="Path 29746" d="M349.665,261.985a108.577,108.577,0,0,1-40.14-8.385,108.576,108.576,0,0,1-40.14,8.385A110.658,110.658,0,0,0,270.86,291.8c4.658,24.224,17.624,40.528,38.665,48.525,20.963-8,34.007-24.3,38.665-48.525A117.435,117.435,0,0,0,349.665,261.985Zm-13.044,20.264-23.292,23.292a12.512,12.512,0,0,1-17.7,0l-6.211-6.211a6.327,6.327,0,0,1,0-8.851,6.187,6.187,0,0,1,8.851,0l4.193,4.193a2.86,2.86,0,0,0,4.115,0L327.848,273.4a6.327,6.327,0,0,1,8.851,0,6.173,6.173,0,0,1,1.863,4.426A7.614,7.614,0,0,1,336.622,282.249Z" transform="translate(448.917 242.192) rotate(-11)" fill="#ec9bee"/>
    </g>
  </g>
</svg>
